<svg xmlns="http://www.w3.org/2000/svg" width="16" height="16" viewBox="0 0 16 16">
                                                                    <path id="Path_53339" data-name="Path 53339" d="M8,0a8,8,0,1,0,8,8A8.009,8.009,0,0,0,8,0Zm.508,2.6,2.057-1.106a7.033,7.033,0,0,1,2.889,2.13l-.49,2.262-1.569.769-2.887-2.1ZM5.452,1.487,7.509,2.6V4.551l-2.885,2.1-1.577-.77-.49-2.276A7.023,7.023,0,0,1,5.452,1.487ZM2.23,11.954a6.954,6.954,0,0,1-1.2-3.274L2.728,6.841,4.272,7.6l1.163,3.3-.983,1.178Zm7.553,2.807a6.871,6.871,0,0,1-3.922-.1L5.232,12.7l1-1.205H9.769l.985,1.166Zm1.751-2.718L10.567,10.9l1.179-3.3,1.537-.753,1.683,1.838a6.934,6.934,0,0,1-.945,2.871Z" fill="#5bd286"></path>
                                                                </svg>