<svg xmlns="http://www.w3.org/2000/svg" width="18.633" height="19.216" viewBox="0 0 18.633 19.216">
                                                                <path id="Path_53339" data-name="Path 53339" d="M8,0a8,8,0,1,0,8,8A8.009,8.009,0,0,0,8,0Zm.508,2.6,2.057-1.106a7.033,7.033,0,0,1,2.889,2.13l-.49,2.262-1.569.769-2.887-2.1ZM5.452,1.487,7.509,2.6V4.551l-2.885,2.1-1.577-.77-.49-2.276A7.023,7.023,0,0,1,5.452,1.487ZM2.23,11.954a6.954,6.954,0,0,1-1.2-3.274L2.728,6.841,4.272,7.6l1.163,3.3-.983,1.178Zm7.553,2.807A6.953,6.953,0,0,1,8,15c-.746,0-.419-.022-1.094-.239l1.6-1.9-1-1.966,2.26.6.985,1.166Zm1.751-2.718L10.567,10.9l1.839-1.752L13.313,8l1.653.681a6.934,6.934,0,0,1-.945,2.871Z" fill="#fc4d4d"></path>
                                                                <g id="Union_18" data-name="Union 18" transform="translate(-21930.344 -5871.763)" fill="#fc4d4d">
                                                                    <path d="M 21939.41796875 5889.87890625 C 21938.85546875 5889.87890625 21938.328125 5889.66015625 21937.931640625 5889.2626953125 C 21937.11328125 5888.44384765625 21937.11328125 5887.111328125 21937.931640625 5886.29248046875 L 21939.626953125 5884.5966796875 L 21937.931640625 5882.9013671875 C 21937.11328125 5882.0830078125 21937.11328125 5880.75244140625 21937.927734375 5879.93359375 C 21938.322265625 5879.5341796875 21938.8515625 5879.314453125 21939.416015625 5879.314453125 C 21939.978515625 5879.314453125 21940.505859375 5879.533203125 21940.90234375 5879.9306640625 L 21942.59765625 5881.62548828125 L 21944.29296875 5879.93017578125 C 21944.69140625 5879.53271484375 21945.21875 5879.314453125 21945.779296875 5879.314453125 C 21946.33984375 5879.314453125 21946.8671875 5879.533203125 21947.263671875 5879.9306640625 C 21948.08203125 5880.74951171875 21948.08203125 5882.08203125 21947.263671875 5882.90087890625 L 21945.568359375 5884.5966796875 L 21947.263671875 5886.2919921875 C 21948.08203125 5887.111328125 21948.08203125 5888.44384765625 21947.263671875 5889.2626953125 C 21946.8671875 5889.65966796875 21946.33984375 5889.87841796875 21945.779296875 5889.87841796875 C 21945.220703125 5889.87841796875 21944.6953125 5889.6611328125 21944.296875 5889.26708984375 L 21944.294921875 5889.26513671875 L 21944.29296875 5889.26318359375 L 21942.59765625 5887.56787109375 L 21940.90234375 5889.26318359375 C 21940.505859375 5889.66015625 21939.978515625 5889.87890625 21939.41796875 5889.87890625 Z" stroke="none"></path>
                                                                    <path d="M 21939.416015625 5888.77880859375 C 21939.673828125 5888.77880859375 21939.9296875 5888.68115234375 21940.125 5888.4853515625 L 21942.59765625 5886.01220703125 L 21945.0703125 5888.4853515625 C 21945.46484375 5888.8759765625 21946.095703125 5888.8759765625 21946.486328125 5888.4853515625 C 21946.876953125 5888.09423828125 21946.876953125 5887.4609375 21946.486328125 5887.06982421875 L 21944.013671875 5884.5966796875 L 21946.486328125 5882.12353515625 C 21946.876953125 5881.732421875 21946.876953125 5881.09912109375 21946.486328125 5880.7080078125 C 21946.095703125 5880.3173828125 21945.4609375 5880.3173828125 21945.0703125 5880.7080078125 L 21942.59765625 5883.18115234375 L 21940.125 5880.7080078125 C 21939.732421875 5880.31591796875 21939.09375 5880.31884765625 21938.708984375 5880.7080078125 C 21938.318359375 5881.09912109375 21938.318359375 5881.732421875 21938.708984375 5882.12353515625 L 21941.181640625 5884.5966796875 L 21938.708984375 5887.06982421875 C 21938.318359375 5887.4609375 21938.318359375 5888.09423828125 21938.708984375 5888.4853515625 C 21938.904296875 5888.68115234375 21939.16015625 5888.77880859375 21939.416015625 5888.77880859375 M 21939.41796875 5890.978515625 C 21938.560546875 5890.978515625 21937.7578125 5890.6455078125 21937.15234375 5890.0400390625 C 21935.90625 5888.79248046875 21935.90625 5886.7626953125 21937.15234375 5885.51513671875 L 21938.0703125 5884.5966796875 L 21937.15234375 5883.67919921875 C 21935.908203125 5882.431640625 21935.90625 5880.404296875 21937.1484375 5879.15673828125 C 21937.751953125 5878.54931640625 21938.556640625 5878.21484375 21939.416015625 5878.21484375 C 21940.271484375 5878.21484375 21941.076171875 5878.5478515625 21941.681640625 5879.1533203125 L 21942.59765625 5880.0693359375 L 21943.513671875 5879.15234375 C 21944.123046875 5878.546875 21944.92578125 5878.21484375 21945.779296875 5878.21484375 C 21946.634765625 5878.21484375 21947.4375 5878.5478515625 21948.04296875 5879.1533203125 C 21949.2890625 5880.40087890625 21949.2890625 5882.4306640625 21948.04296875 5883.67822265625 L 21947.125 5884.5966796875 L 21948.04296875 5885.51416015625 C 21949.2890625 5886.7626953125 21949.2890625 5888.79248046875 21948.04296875 5890.0400390625 C 21947.4375 5890.6455078125 21946.634765625 5890.978515625 21945.779296875 5890.978515625 C 21944.9296875 5890.978515625 21944.126953125 5890.64794921875 21943.521484375 5890.048828125 L 21942.59765625 5889.1240234375 L 21941.681640625 5890.041015625 C 21941.076171875 5890.6455078125 21940.2734375 5890.978515625 21939.41796875 5890.978515625 Z" stroke="none" fill="#151825"></path>
                                                                </g>
                                                            </svg>