
<svg xmlns="http://www.w3.org/2000/svg" width="474" height="337" viewBox="0 0 474 337">
    <g fill="none" fill-rule="evenodd">
        <g>
            <g transform="translate(-13 -82) translate(13 82)">
                <rect width="36" height="259" y="78" fill="#7F97AB" rx="18"/>
                <rect width="36" height="259" x="438" y="78" fill="#7F97AB" rx="18"/>
                <path fill="#FF5200" d="M217.25 81.75c0 9.145 1.584 17.963 4.521 26.25H17.5C7.835 108 0 100.164 0 90.5S7.835 73 17.5 73h200.238c-.323 2.878-.488 5.797-.488 8.75zM456.5 73c9.665 0 17.5 7.835 17.5 17.5s-7.835 17.5-17.5 17.5H410.23c2.937-8.287 4.521-17.105 4.521-26.25 0-2.953-.165-5.872-.488-8.75H456.5z"/>
                <g fill="#7F97AB">
                    <path d="M69.111.628c19.018-2.396 37.31 2.18 52.303 11.735.126.064.247.14.359.228 1.943 1.254 3.83 2.59 5.655 4.007 15.933 12.366 27.159 30.792 29.922 52.356.025.111.037.222.043.335 2.673 21.578-3.629 42.211-15.991 58.14-3.232 4.162-6.881 8.009-10.892 11.464-.118.137-.256.254-.406.348-11.257 9.574-25.32 16.095-41.056 18.111-.114.029-.224.037-.335.041-8.198 1.016-16.259.735-23.977-.68-.091-.012-.184-.026-.275-.05-12.495-2.34-24.082-7.65-33.89-15.261-.61-.473-1.21-.954-1.807-1.447-.093-.062-.183-.135-.265-.219C13.668 127.412 3.29 109.665.649 89.049c-.024-.113-.038-.226-.043-.337-2.029-16.39 1.12-32.234 8.168-45.885.04-.101.089-.192.143-.28 2.198-4.216 4.77-8.224 7.68-11.973C28.994 14.602 47.48 3.356 69.112.628zm61.524 24.029l.157.256c2.872 4.774 5.412 9.877 7.29 14.588.08.202.125.409.139.614 3.697 3.543 7.227 7.328 10.536 11.407-4.06-10.334-10.311-19.449-18.122-26.865zm3.049 14.774c-1.72-4.069-3.916-8.376-6.362-12.44-2.534-4.208-5.326-8.143-8.124-11.263-2.235-1.422-4.548-2.727-6.929-3.91L93.192 7.68c-.152.253-.366.476-.632.648-1.983 1.283-4.33 3.185-6.636 5.272-2.23 2.022-4.426 4.216-6.236 6.202 5.262 6.281 9.364 12.644 12.847 19.04 4.8 1.181 10.434 2.894 16.007 4.796 5.555 1.897 11.048 3.974 15.593 5.888 3.276-3.218 6.47-6.561 9.549-10.095zm16.21 44.457c.1.144.181.307.24.485.918 2.74 1.782 5.899 2.367 9.438 1.52-7.56 1.894-15.483.946-23.544l-3.553 13.62zm-.74 21.567c.198-3.933-.073-7.553-.605-10.823-.497-3.056-1.223-5.825-2.013-8.275l-13.16-3.665c-2.724 4.19-6.252 8.493-10.036 12.452-4.1 4.286-8.507 8.167-12.525 11.064.617 8.367.408 16.474-1.378 24.452 2.342 1.12 5.101 2.112 8.066 2.914 3.45.934 7.164 1.599 10.806 1.9 3.639-3.184 6.958-6.708 9.91-10.518 4.575-5.889 8.274-12.464 10.935-19.501zm-25.236 33.575c-2.543-.38-5.064-.907-7.467-1.56-3.953-1.068-7.603-2.472-10.518-4.077-7.154 2.825-14.868 4.85-23.155 6.057l-.04.07c-1.733 2.914-4.196 6.016-7.12 8.97-1.7 1.722-3.557 3.395-5.516 4.958 5.937.706 12.053.706 18.254-.075l.017-.003c13.376-1.684 25.48-6.799 35.545-14.34zm-15.98-35.728c3.975-2.8 8.393-6.659 12.495-10.95 3.845-4.02 7.415-8.417 10.07-12.659-1.41-9.281-3.698-17.952-6.875-26-4.69-2.01-10.518-4.234-16.386-6.236-5.258-1.794-10.556-3.416-15.102-4.559-5.605 5.75-10.856 11.894-15.79 18.398l9.556 35.66c7.558 2.768 14.768 4.353 22.032 6.346zm-32.327-84.98c.03-.04.06-.078.092-.116 2.043-2.334 4.751-5.09 7.52-7.597 2.079-1.88 4.192-3.624 6.098-4.962L88.36 4.61c-6.087-.761-12.367-.781-18.731.02-13.547 1.71-25.79 6.933-35.93 14.635l-.297 1.296c2.587.163 5.6.583 8.575 1.234 3.277.715 6.544 1.713 9.196 2.946.058.024.112.055.168.082 7.885-2.742 15.991-4.86 24.27-6.5zM12.553 44.29c-.917 4.28-1.607 8.977-1.771 13.818-.157 4.6.16 9.346 1.203 14.01 4.324 1.479 8.652 2.753 12.986 3.87 2.901-4.288 6.48-8.793 10.265-13.02 3.878-4.332 7.994-8.386 11.834-11.632-.699-8.47-.164-16.234 1.553-23.311-2.218-.931-4.849-1.704-7.504-2.282-3.401-.746-6.796-1.17-9.407-1.222-.253-.003-.494-.053-.714-.14L16.612 37.44c-1.47 2.208-2.828 4.491-4.06 6.849zM8.424 74.407c-.051-.114-.094-.233-.124-.359-1.233-5.001-1.666-10.083-1.574-15.01C4.16 68.303 3.35 78.226 4.628 88.364l.002.009c.07.554.145 1.1.228 1.651.852-5.359 2.07-10.55 3.566-15.617zm11.605 44.938c-.057-.245-.067-.487-.04-.72l-9.866-10.002c3.157 7.358 7.446 14.064 12.617 19.927-1.19-3.191-2.013-6.255-2.711-9.205zm4.109-.157c.65 2.673 1.422 5.435 2.514 8.3 1.155 3.025 2.674 6.176 4.794 9.462.525.428 1.056.854 1.595 1.271 9.126 7.082 19.88 12.068 31.479 14.349 2.98-2.059 5.784-4.44 8.227-6.911 2.49-2.513 4.606-5.127 6.157-7.603-4.871-5.8-9.534-12.1-13.443-19.073-4.751-.492-10.244-1.72-15.699-3.42-5.562-1.73-11.106-3.955-15.805-6.385l-9.82 10.01zm57.884-21.094l-9.58-35.752c-7.354-3.095-14.936-5.726-22.71-7.973-3.697 3.118-7.692 7.055-11.483 11.293-3.813 4.257-7.404 8.8-10.258 13.083-.096.145-.207.274-.332.385 1.246 8.548 3.573 17.187 6.966 25.922.172.038.342.1.504.186 4.639 2.46 10.223 4.724 15.827 6.471 5.158 1.606 10.323 2.77 14.767 3.245 5.801-5.698 11.384-10.675 16.299-16.86z" transform="translate(238)"/>
                </g>
            </g>
        </g>
    </g>
</svg>
