
<svg xmlns="http://www.w3.org/2000/svg" width="14" height="17.888" viewBox="0 0 14 17.888">
<path id="next_1_" data-name="next (1)" d="M.736,29.657A.819.819,0,0,0-.423,30.816l1.139,1.14H-9.219a.781.781,0,0,0-.781.781.781.781,0,0,0,.781.781H.716L-.423,34.657A.819.819,0,0,0,.736,35.816L3.7,32.847a.156.156,0,0,0,0-.221Z" transform="translate(10.25 -29.417)" fill="#5bd286"></path>
<path id="next_1_2" data-name="next (1)" d="M10.736.24A.819.819,0,1,0,9.577,1.4l1.139,1.14H.781a.781.781,0,0,0,0,1.562h9.935L9.577,5.24A.819.819,0,1,0,10.736,6.4L13.7,3.43a.156.156,0,0,0,0-.221Z" transform="translate(13.75 17.888) rotate(180)" fill="#fc4d4d"></path>
</svg>