
<svg id="Layer_1" data-name="Layer 1" xmlns="http://www.w3.org/2000/svg" xmlns:xlink="http://www.w3.org/1999/xlink" viewBox="0 0 490 408.01">
    <defs>
        <style>.cls-1{fill:#FFF;fill-rule:evenodd;}</style>
    </defs>
    <path class="cls-1" d="M337.36,357.64c-2.44,2.29-5.89,3.46-10.34,3.46h-14.3V334.69H327c4.78,0,8.3,1.18,10.6,3.57S341,343.89,341,348s-1.23,7.26-3.67,9.6Zm6,13.55a25.94,25.94,0,0,0,11.53-9.57c2.56-4,3.83-9,3.83-15q0-12.69-8.28-19.65-7.23-6.09-19.8-6.85L327,320H295v88h17.72V375.79h14.14L343,408h19v-.85l-18.61-36Z"/>
    <path class="cls-1" d="M234.89,375.61l10.81-32.52,10.94,32.52ZM254,321.14H237.4L205,408h19.08l6-17.89h31.44l6,17.89h19.06Z"/>
    <path class="cls-1" d="M144.68,321.15l19.54,65.32,19.67-65.32h19.89L173.58,408H154.93l-30.1-86.86Z"/>
    <path class="cls-1" d="M235.73,63c29.5-3.7,52.31,3.38,75.56,18.12,3.57,2.3,6.51,4.35,9.33,6.55A121.64,121.64,0,0,1,342.3,258.81a125.17,125.17,0,0,1-16.9,17.71,3.48,3.48,0,0,1-.63.53,122.07,122.07,0,0,1-63.68,28,122.5,122.5,0,0,1-90.71-24.63c-.94-.73-1.86-1.46-2.8-2.23a121.69,121.69,0,0,1-18.87-168.94c19.24-24.67,53.47-42,87-46.24Zm89.85,37.11.25.39A161.61,161.61,0,0,1,337.16,123a3.23,3.23,0,0,1,.2,1,192.92,192.92,0,0,1,16.34,17.61,115.21,115.21,0,0,0-28.12-41.48Zm4.74,22.81a149.64,149.64,0,0,0-9.88-19.21,115.83,115.83,0,0,0-12.6-17.39,109.26,109.26,0,0,0-10.74-6l-29.58-6.38a3,3,0,0,1-1,1A87.17,87.17,0,0,0,256.25,83c-3.47,3.13-6.88,6.51-9.68,9.58A177.4,177.4,0,0,1,266.5,122c7.45,1.83,16.19,4.47,24.82,7.42s17.15,6.12,24.18,9.09c5.08-5,10-10.15,14.82-15.6Zm25.13,68.67a2.72,2.72,0,0,1,.39.76,90.9,90.9,0,0,1,3.65,14.58A114.4,114.4,0,0,0,361,170.52l-5.53,21Zm-1.12,33.31a80.1,80.1,0,0,0-.94-16.71,86.13,86.13,0,0,0-3.14-12.79l-20.42-5.66A137.23,137.23,0,0,1,314.29,209,147.9,147.9,0,0,1,294.86,226c.94,12.91.63,25.46-2.15,37.76a75.09,75.09,0,0,0,12.52,4.51A94.91,94.91,0,0,0,322,271.23,118.6,118.6,0,0,0,337.36,255,116.78,116.78,0,0,0,354.33,224.87Zm-39.14,51.85a104.93,104.93,0,0,1-11.6-2.4,75,75,0,0,1-16.33-6.3,160.47,160.47,0,0,1-35.89,9.35l-.06.11a74.49,74.49,0,0,1-11.05,13.84,95.71,95.71,0,0,1-8.55,7.67,116.9,116.9,0,0,0,83.48-22.27Zm-24.8-55.18a138.73,138.73,0,0,0,19.37-16.9,128.55,128.55,0,0,0,15.64-19.56,185.76,185.76,0,0,0-10.68-40.16c-7.27-3.12-16.31-6.55-25.42-9.62-8.14-2.79-16.37-5.29-23.41-7.06a302.67,302.67,0,0,0-24.5,28.43l14.82,55.06c11.72,4.27,22.9,6.71,34.18,9.8ZM240.24,90.3c.06-.06.1-.12.15-.18A150.58,150.58,0,0,1,252,78.38a105.31,105.31,0,0,1,9.48-7.66L260,69.11a117.59,117.59,0,0,0-29,0,116,116,0,0,0-55.73,22.61l-.47,2a90.16,90.16,0,0,1,13.31,1.89,72.59,72.59,0,0,1,14.27,4.55l.24.12a280,280,0,0,1,37.65-10Zm-97.79,40.1a122.57,122.57,0,0,0-2.76,21.35,85.93,85.93,0,0,0,1.86,21.63c6.72,2.28,13.43,4.25,20.15,6A203,203,0,0,1,196,141.28a112.43,112.43,0,0,1,2.41-36,67.6,67.6,0,0,0-11.64-3.54,80.76,80.76,0,0,0-14.6-1.89,2.76,2.76,0,0,1-1.1-.21l-22.31,20.17A110.38,110.38,0,0,0,142.45,130.4ZM136,176.92a3.2,3.2,0,0,1-.21-.57,90,90,0,0,1-2.43-23.18,114.61,114.61,0,0,0-3.24,45.31c.1.87.22,1.7.34,2.56A189.25,189.25,0,0,1,136,176.92Zm18,69.4a3,3,0,0,1-.06-1.11l-15.31-15.46a114.86,114.86,0,0,0,19.58,30.79A115.27,115.27,0,0,1,154,246.32Zm6.37-.24a108,108,0,0,0,3.88,12.83,79.46,79.46,0,0,0,7.45,14.6c.82.67,1.64,1.32,2.47,1.95A116.53,116.53,0,0,0,223,297.63,89.89,89.89,0,0,0,235.79,287a69.24,69.24,0,0,0,9.56-11.75,193.15,193.15,0,0,1-20.85-29.47,130.09,130.09,0,0,1-24.36-5.28,152.9,152.9,0,0,1-24.5-9.86l-15.23,15.47Zm74.91-87.8A315.82,315.82,0,0,0,200.1,146a195.92,195.92,0,0,0-33.7,37.64,3,3,0,0,1-.53.59,183.68,183.68,0,0,0,10.8,40.06,2.82,2.82,0,0,1,.79.26,147.55,147.55,0,0,0,24.54,10,126.25,126.25,0,0,0,22.91,5c9-8.8,17.66-16.51,25.27-26.05l-14.86-55.22Z"/>
    <path class="cls-1" d="M20.44,35.64C20.56,21.88,22,20.5,35.75,20.37H451.43L20.52,313.25c0-.95-.08-1.81-.08-2.89ZM449.17,0H40.83C10.21,0,0,10.18,0,40.71V305.29C0,335.82,10.21,346,40.83,346H81.67V325.65H40.83c-.85,0-1.49,0-2.28,0L469.48,32.73c.06,2.26.1,4.78.1,8V305.29c0,20.36,0,20.36-20.41,20.36H408.33V346h40.84c30.62,0,40.83-10.18,40.83-40.71V40.71C490,10.18,479.79,0,449.17,0Z"/>
</svg>
